<mxfile host="app.diagrams.net" agent="Mozilla/5.0 (Windows NT 10.0; Win64; x64) AppleWebKit/537.36 (KHTML, like Gecko) Chrome/140.0.0.0 Safari/537.36" version="28.2.3">
  <diagram name="Trang-1" id="MU81jmdY3GMAtuqKKShm">
    <mxGraphModel dx="1042" dy="527" grid="1" gridSize="10" guides="1" tooltips="1" connect="1" arrows="1" fold="1" page="1" pageScale="1" pageWidth="827" pageHeight="1169" math="0" shadow="0">
      <root>
        <mxCell id="0" />
        <mxCell id="1" parent="0" />
        <mxCell id="ZDwObJh1dZIPPEpJLlDW-1" value="" style="outlineConnect=0;dashed=0;verticalLabelPosition=bottom;verticalAlign=top;align=center;html=1;shape=mxgraph.aws3.internet_3;fillColor=#D2D3D3;gradientColor=none;" vertex="1" parent="1">
          <mxGeometry x="370" y="120" width="79.5" height="50" as="geometry" />
        </mxCell>
        <mxCell id="ZDwObJh1dZIPPEpJLlDW-2" value="" style="endArrow=none;dashed=1;html=1;dashPattern=1 3;strokeWidth=2;rounded=0;" edge="1" parent="1" source="ZDwObJh1dZIPPEpJLlDW-3" target="ZDwObJh1dZIPPEpJLlDW-1">
          <mxGeometry width="50" height="50" relative="1" as="geometry">
            <mxPoint x="410" y="210" as="sourcePoint" />
            <mxPoint x="440" y="350" as="targetPoint" />
          </mxGeometry>
        </mxCell>
        <mxCell id="ZDwObJh1dZIPPEpJLlDW-12" value="" style="edgeStyle=orthogonalEdgeStyle;rounded=0;orthogonalLoop=1;jettySize=auto;html=1;" edge="1" parent="1" source="ZDwObJh1dZIPPEpJLlDW-3" target="ZDwObJh1dZIPPEpJLlDW-5">
          <mxGeometry relative="1" as="geometry" />
        </mxCell>
        <mxCell id="ZDwObJh1dZIPPEpJLlDW-3" value="" style="image;html=1;image=img/lib/clip_art/networking/Router_128x128.png" vertex="1" parent="1">
          <mxGeometry x="369.5" y="200" width="80" height="80" as="geometry" />
        </mxCell>
        <mxCell id="ZDwObJh1dZIPPEpJLlDW-5" value="" style="image;html=1;image=img/lib/clip_art/networking/Switch_128x128.png" vertex="1" parent="1">
          <mxGeometry x="369.5" y="320" width="80" height="80" as="geometry" />
        </mxCell>
        <mxCell id="ZDwObJh1dZIPPEpJLlDW-7" value="" style="image;points=[];aspect=fixed;html=1;align=center;shadow=0;dashed=0;image=img/lib/allied_telesis/computer_and_terminals/Personal_Computer.svg;" vertex="1" parent="1">
          <mxGeometry x="70" y="480" width="45.6" height="61.800000000000004" as="geometry" />
        </mxCell>
        <mxCell id="ZDwObJh1dZIPPEpJLlDW-8" value="" style="image;points=[];aspect=fixed;html=1;align=center;shadow=0;dashed=0;image=img/lib/allied_telesis/computer_and_terminals/Personal_Computer.svg;" vertex="1" parent="1">
          <mxGeometry x="150" y="490" width="45.6" height="61.800000000000004" as="geometry" />
        </mxCell>
        <mxCell id="ZDwObJh1dZIPPEpJLlDW-9" value="" style="image;points=[];aspect=fixed;html=1;align=center;shadow=0;dashed=0;image=img/lib/allied_telesis/computer_and_terminals/Personal_Computer.svg;" vertex="1" parent="1">
          <mxGeometry x="391" y="490" width="45.6" height="61.800000000000004" as="geometry" />
        </mxCell>
        <mxCell id="ZDwObJh1dZIPPEpJLlDW-10" value="" style="image;points=[];aspect=fixed;html=1;align=center;shadow=0;dashed=0;image=img/lib/allied_telesis/computer_and_terminals/Personal_Computer.svg;" vertex="1" parent="1">
          <mxGeometry x="310" y="490" width="45.6" height="61.800000000000004" as="geometry" />
        </mxCell>
        <mxCell id="ZDwObJh1dZIPPEpJLlDW-11" value="" style="image;points=[];aspect=fixed;html=1;align=center;shadow=0;dashed=0;image=img/lib/allied_telesis/computer_and_terminals/Personal_Computer.svg;" vertex="1" parent="1">
          <mxGeometry x="220" y="490" width="45.6" height="61.800000000000004" as="geometry" />
        </mxCell>
        <mxCell id="ZDwObJh1dZIPPEpJLlDW-13" value="" style="endArrow=none;dashed=1;html=1;dashPattern=1 3;strokeWidth=2;rounded=0;" edge="1" parent="1" target="ZDwObJh1dZIPPEpJLlDW-5">
          <mxGeometry width="50" height="50" relative="1" as="geometry">
            <mxPoint x="100" y="490" as="sourcePoint" />
            <mxPoint x="440" y="450" as="targetPoint" />
            <Array as="points">
              <mxPoint x="120" y="450" />
              <mxPoint x="400" y="420" />
            </Array>
          </mxGeometry>
        </mxCell>
        <mxCell id="ZDwObJh1dZIPPEpJLlDW-14" value="" style="endArrow=none;dashed=1;html=1;dashPattern=1 3;strokeWidth=2;rounded=0;" edge="1" parent="1" target="ZDwObJh1dZIPPEpJLlDW-5">
          <mxGeometry width="50" height="50" relative="1" as="geometry">
            <mxPoint x="180" y="490" as="sourcePoint" />
            <mxPoint x="483" y="400" as="targetPoint" />
            <Array as="points">
              <mxPoint x="200" y="450" />
              <mxPoint x="400" y="430" />
            </Array>
          </mxGeometry>
        </mxCell>
        <mxCell id="ZDwObJh1dZIPPEpJLlDW-15" value="" style="endArrow=none;dashed=1;html=1;dashPattern=1 3;strokeWidth=2;rounded=0;entryX=0.426;entryY=0.975;entryDx=0;entryDy=0;entryPerimeter=0;" edge="1" parent="1" source="ZDwObJh1dZIPPEpJLlDW-11" target="ZDwObJh1dZIPPEpJLlDW-5">
          <mxGeometry width="50" height="50" relative="1" as="geometry">
            <mxPoint x="240" y="500" as="sourcePoint" />
            <mxPoint x="464" y="410" as="targetPoint" />
            <Array as="points">
              <mxPoint x="260" y="460" />
              <mxPoint x="400" y="440" />
            </Array>
          </mxGeometry>
        </mxCell>
        <mxCell id="ZDwObJh1dZIPPEpJLlDW-16" value="" style="endArrow=none;dashed=1;html=1;dashPattern=1 3;strokeWidth=2;rounded=0;" edge="1" parent="1" source="ZDwObJh1dZIPPEpJLlDW-10" target="ZDwObJh1dZIPPEpJLlDW-5">
          <mxGeometry width="50" height="50" relative="1" as="geometry">
            <mxPoint x="305" y="500" as="sourcePoint" />
            <mxPoint x="448.8" y="400" as="targetPoint" />
            <Array as="points">
              <mxPoint x="333" y="460" />
              <mxPoint x="410" y="450" />
            </Array>
          </mxGeometry>
        </mxCell>
        <mxCell id="ZDwObJh1dZIPPEpJLlDW-17" value="" style="endArrow=none;dashed=1;html=1;dashPattern=1 3;strokeWidth=2;rounded=0;" edge="1" parent="1" source="ZDwObJh1dZIPPEpJLlDW-9" target="ZDwObJh1dZIPPEpJLlDW-5">
          <mxGeometry width="50" height="50" relative="1" as="geometry">
            <mxPoint x="390" y="500" as="sourcePoint" />
            <mxPoint x="440" y="450" as="targetPoint" />
          </mxGeometry>
        </mxCell>
        <mxCell id="ZDwObJh1dZIPPEpJLlDW-18" value="" style="image;html=1;image=img/lib/clip_art/computers/Server_Tower_128x128.png" vertex="1" parent="1">
          <mxGeometry x="470" y="490" width="80" height="80" as="geometry" />
        </mxCell>
        <mxCell id="ZDwObJh1dZIPPEpJLlDW-20" value="" style="endArrow=classic;html=1;rounded=0;" edge="1" parent="1" source="ZDwObJh1dZIPPEpJLlDW-5" target="ZDwObJh1dZIPPEpJLlDW-18">
          <mxGeometry width="50" height="50" relative="1" as="geometry">
            <mxPoint x="390" y="500" as="sourcePoint" />
            <mxPoint x="440" y="450" as="targetPoint" />
          </mxGeometry>
        </mxCell>
        <mxCell id="ZDwObJh1dZIPPEpJLlDW-23" value="" style="shape=image;html=1;verticalAlign=top;verticalLabelPosition=bottom;labelBackgroundColor=#ffffff;imageAspect=0;aspect=fixed;image=https://icons.diagrams.net/icon-cache1/Computer_Hardware_Glyphs_vol_2-2899/printer__print__outline__printsetting__papper__photocopy__machine-537.svg" vertex="1" parent="1">
          <mxGeometry x="680" y="600" width="85" height="85" as="geometry" />
        </mxCell>
        <mxCell id="ZDwObJh1dZIPPEpJLlDW-24" value="" style="endArrow=classic;html=1;rounded=0;" edge="1" parent="1" source="ZDwObJh1dZIPPEpJLlDW-5" target="ZDwObJh1dZIPPEpJLlDW-23">
          <mxGeometry width="50" height="50" relative="1" as="geometry">
            <mxPoint x="390" y="500" as="sourcePoint" />
            <mxPoint x="440" y="450" as="targetPoint" />
          </mxGeometry>
        </mxCell>
        <mxCell id="ZDwObJh1dZIPPEpJLlDW-27" value="" style="curved=1;endArrow=classic;html=1;rounded=0;entryX=0.298;entryY=0.964;entryDx=0;entryDy=0;entryPerimeter=0;exitX=0.697;exitY=0.945;exitDx=0;exitDy=0;exitPerimeter=0;" edge="1" parent="1" source="ZDwObJh1dZIPPEpJLlDW-9" target="ZDwObJh1dZIPPEpJLlDW-7">
          <mxGeometry width="50" height="50" relative="1" as="geometry">
            <mxPoint x="420" y="560" as="sourcePoint" />
            <mxPoint x="100" y="570" as="targetPoint" />
            <Array as="points">
              <mxPoint x="300" y="620" />
              <mxPoint x="250" y="630" />
            </Array>
          </mxGeometry>
        </mxCell>
        <mxCell id="ZDwObJh1dZIPPEpJLlDW-29" value="" style="endArrow=none;dashed=1;html=1;dashPattern=1 3;strokeWidth=2;rounded=0;entryX=0;entryY=0.75;entryDx=0;entryDy=0;" edge="1" parent="1" target="ZDwObJh1dZIPPEpJLlDW-23">
          <mxGeometry width="50" height="50" relative="1" as="geometry">
            <mxPoint x="270" y="630" as="sourcePoint" />
            <mxPoint x="440" y="650" as="targetPoint" />
          </mxGeometry>
        </mxCell>
        <mxCell id="ZDwObJh1dZIPPEpJLlDW-34" value="" style="endArrow=classic;html=1;rounded=0;entryX=0;entryY=0.75;entryDx=0;entryDy=0;" edge="1" parent="1" target="ZDwObJh1dZIPPEpJLlDW-23">
          <mxGeometry width="50" height="50" relative="1" as="geometry">
            <mxPoint x="660" y="660" as="sourcePoint" />
            <mxPoint x="440" y="650" as="targetPoint" />
          </mxGeometry>
        </mxCell>
        <mxCell id="ZDwObJh1dZIPPEpJLlDW-35" value="Internet" style="text;html=1;align=center;verticalAlign=middle;resizable=0;points=[];autosize=1;strokeColor=none;fillColor=none;" vertex="1" parent="1">
          <mxGeometry x="460" y="138" width="60" height="30" as="geometry" />
        </mxCell>
        <mxCell id="ZDwObJh1dZIPPEpJLlDW-38" value="Router" style="text;html=1;align=center;verticalAlign=middle;resizable=0;points=[];autosize=1;strokeColor=none;fillColor=none;" vertex="1" parent="1">
          <mxGeometry x="460" y="228" width="60" height="30" as="geometry" />
        </mxCell>
        <mxCell id="ZDwObJh1dZIPPEpJLlDW-39" value="Switch" style="text;html=1;align=center;verticalAlign=middle;resizable=0;points=[];autosize=1;strokeColor=none;fillColor=none;" vertex="1" parent="1">
          <mxGeometry x="460" y="338" width="60" height="30" as="geometry" />
        </mxCell>
        <mxCell id="ZDwObJh1dZIPPEpJLlDW-40" value="Computer" style="text;html=1;align=center;verticalAlign=middle;resizable=0;points=[];autosize=1;strokeColor=none;fillColor=none;" vertex="1" parent="1">
          <mxGeometry x="230" y="588" width="80" height="30" as="geometry" />
        </mxCell>
        <mxCell id="ZDwObJh1dZIPPEpJLlDW-41" value="Photocopy" style="text;html=1;align=center;verticalAlign=middle;resizable=0;points=[];autosize=1;strokeColor=none;fillColor=none;" vertex="1" parent="1">
          <mxGeometry x="685" y="690" width="80" height="30" as="geometry" />
        </mxCell>
        <mxCell id="ZDwObJh1dZIPPEpJLlDW-42" value="Máy chủ" style="text;html=1;align=center;verticalAlign=middle;resizable=0;points=[];autosize=1;strokeColor=none;fillColor=none;" vertex="1" parent="1">
          <mxGeometry x="480" y="580" width="70" height="30" as="geometry" />
        </mxCell>
        <mxCell id="ZDwObJh1dZIPPEpJLlDW-43" value="&lt;div&gt;&lt;b&gt;&lt;span style=&quot;white-space: pre;&quot;&gt;&#x9;&lt;/span&gt;Router/Modem&lt;/b&gt;&lt;/div&gt;&lt;div&gt;Kết nối Internet từ ISP.&lt;/div&gt;&lt;div&gt;Cấp phát IP cho toàn bộ thiết bị.&lt;/div&gt;&lt;div&gt;&lt;b&gt;&lt;span style=&quot;white-space: pre;&quot;&gt;&#x9;&lt;/span&gt;Switch&lt;/b&gt;&lt;/div&gt;&lt;div&gt;Nối với Router để mở rộng cổng LAN.&lt;/div&gt;&lt;div&gt;Tất cả máy tính, máy chủ, máy in và máy photocopy cắm dây vào Switch (hoặc kết nối Wi-Fi nếu hỗ trợ).&lt;/div&gt;&lt;div&gt;&lt;b&gt;&lt;span style=&quot;white-space: pre;&quot;&gt;&#x9;&lt;/span&gt;Máy chủ (Server)&lt;/b&gt;&lt;/div&gt;&lt;div&gt;Đặt IP tĩnh.&lt;/div&gt;&lt;div&gt;Là nơi lưu dữ liệu chung, có thể quản lý in ấn, backup.&lt;/div&gt;&lt;div&gt;5 Máy tính&lt;/div&gt;&lt;div&gt;Kết nối đến Switch.&lt;/div&gt;&lt;div&gt;Truy cập Internet và tài nguyên từ máy chủ.&lt;/div&gt;&lt;div&gt;&lt;b&gt;&lt;span style=&quot;white-space: pre;&quot;&gt;&#x9;&lt;/span&gt;Máy in &amp;amp; Máy photocopy&lt;/b&gt;&lt;/div&gt;&lt;div&gt;Kết nối trực tiếp vào Switch hoặc qua Wi-Fi Router.&lt;/div&gt;&lt;div&gt;Đặt IP tĩnh để các máy tính dễ dàng in/scan.&lt;/div&gt;" style="text;html=1;align=left;verticalAlign=middle;resizable=0;points=[];autosize=1;strokeColor=none;fillColor=none;fontSize=15;" vertex="1" parent="1">
          <mxGeometry x="80" y="685" width="720" height="280" as="geometry" />
        </mxCell>
      </root>
    </mxGraphModel>
  </diagram>
</mxfile>
